<mxfile host="app.diagrams.net" modified="2024-04-29T21:05:22.070Z" agent="Mozilla/5.0 (Windows NT 10.0; Win64; x64; rv:124.0) Gecko/20100101 Firefox/124.0" etag="jBu9hfaGuRwfwi2-gL9X" version="24.3.0" type="device">
  <diagram name="Seite-1" id="DIJ-OiWHJhV-HX9WC2N1">
    <mxGraphModel dx="1434" dy="794" grid="0" gridSize="10" guides="1" tooltips="1" connect="1" arrows="1" fold="1" page="1" pageScale="1" pageWidth="1169" pageHeight="827" background="#FFFFFF" math="0" shadow="0">
      <root>
        <mxCell id="0" />
        <mxCell id="1" parent="0" />
        <mxCell id="FMVrPWAAgrIxdDDhSXM1-61" value="" style="rounded=0;whiteSpace=wrap;html=1;rotation=90;fillColor=#dae8fc;strokeColor=#6c8ebf;" vertex="1" parent="1">
          <mxGeometry x="462" y="305" width="606" height="135" as="geometry" />
        </mxCell>
        <mxCell id="FMVrPWAAgrIxdDDhSXM1-60" value="" style="rounded=0;whiteSpace=wrap;html=1;rotation=90;fillColor=#dae8fc;strokeColor=#6c8ebf;" vertex="1" parent="1">
          <mxGeometry x="231" y="307.5" width="606" height="135" as="geometry" />
        </mxCell>
        <mxCell id="FMVrPWAAgrIxdDDhSXM1-57" value="" style="rounded=0;whiteSpace=wrap;html=1;rotation=90;fillColor=#dae8fc;strokeColor=#6c8ebf;" vertex="1" parent="1">
          <mxGeometry x="-6" y="307.5" width="606" height="135" as="geometry" />
        </mxCell>
        <mxCell id="FMVrPWAAgrIxdDDhSXM1-20" style="edgeStyle=orthogonalEdgeStyle;rounded=0;orthogonalLoop=1;jettySize=auto;html=1;exitX=1;exitY=0.5;exitDx=0;exitDy=0;" edge="1" parent="1" source="FMVrPWAAgrIxdDDhSXM1-3" target="FMVrPWAAgrIxdDDhSXM1-11">
          <mxGeometry relative="1" as="geometry" />
        </mxCell>
        <mxCell id="FMVrPWAAgrIxdDDhSXM1-29" style="rounded=0;orthogonalLoop=1;jettySize=auto;html=1;exitX=1;exitY=0.5;exitDx=0;exitDy=0;entryX=0;entryY=0.5;entryDx=0;entryDy=0;" edge="1" parent="1" source="FMVrPWAAgrIxdDDhSXM1-3" target="FMVrPWAAgrIxdDDhSXM1-13">
          <mxGeometry relative="1" as="geometry" />
        </mxCell>
        <mxCell id="FMVrPWAAgrIxdDDhSXM1-30" style="rounded=0;orthogonalLoop=1;jettySize=auto;html=1;exitX=1;exitY=0.5;exitDx=0;exitDy=0;entryX=0;entryY=0.5;entryDx=0;entryDy=0;" edge="1" parent="1" source="FMVrPWAAgrIxdDDhSXM1-3" target="FMVrPWAAgrIxdDDhSXM1-15">
          <mxGeometry relative="1" as="geometry" />
        </mxCell>
        <mxCell id="FMVrPWAAgrIxdDDhSXM1-31" style="rounded=0;orthogonalLoop=1;jettySize=auto;html=1;exitX=1;exitY=0.5;exitDx=0;exitDy=0;" edge="1" parent="1" source="FMVrPWAAgrIxdDDhSXM1-3">
          <mxGeometry relative="1" as="geometry">
            <mxPoint x="494" y="618" as="targetPoint" />
          </mxGeometry>
        </mxCell>
        <mxCell id="FMVrPWAAgrIxdDDhSXM1-3" value="X1" style="ellipse;whiteSpace=wrap;html=1;aspect=fixed;" vertex="1" parent="1">
          <mxGeometry x="257" y="96" width="80" height="80" as="geometry" />
        </mxCell>
        <mxCell id="FMVrPWAAgrIxdDDhSXM1-22" style="edgeStyle=orthogonalEdgeStyle;rounded=0;orthogonalLoop=1;jettySize=auto;html=1;exitX=1;exitY=0.5;exitDx=0;exitDy=0;" edge="1" parent="1" source="FMVrPWAAgrIxdDDhSXM1-4" target="FMVrPWAAgrIxdDDhSXM1-13">
          <mxGeometry relative="1" as="geometry" />
        </mxCell>
        <mxCell id="FMVrPWAAgrIxdDDhSXM1-32" style="rounded=0;orthogonalLoop=1;jettySize=auto;html=1;exitX=1;exitY=0.5;exitDx=0;exitDy=0;entryX=0;entryY=0.5;entryDx=0;entryDy=0;" edge="1" parent="1" source="FMVrPWAAgrIxdDDhSXM1-4" target="FMVrPWAAgrIxdDDhSXM1-11">
          <mxGeometry relative="1" as="geometry" />
        </mxCell>
        <mxCell id="FMVrPWAAgrIxdDDhSXM1-34" style="rounded=0;orthogonalLoop=1;jettySize=auto;html=1;exitX=1;exitY=0.5;exitDx=0;exitDy=0;entryX=0;entryY=0.5;entryDx=0;entryDy=0;" edge="1" parent="1" source="FMVrPWAAgrIxdDDhSXM1-4" target="FMVrPWAAgrIxdDDhSXM1-16">
          <mxGeometry relative="1" as="geometry" />
        </mxCell>
        <mxCell id="FMVrPWAAgrIxdDDhSXM1-4" value="X2" style="ellipse;whiteSpace=wrap;html=1;aspect=fixed;" vertex="1" parent="1">
          <mxGeometry x="257" y="256" width="80" height="80" as="geometry" />
        </mxCell>
        <mxCell id="FMVrPWAAgrIxdDDhSXM1-24" style="edgeStyle=orthogonalEdgeStyle;rounded=0;orthogonalLoop=1;jettySize=auto;html=1;exitX=1;exitY=0.5;exitDx=0;exitDy=0;" edge="1" parent="1" source="FMVrPWAAgrIxdDDhSXM1-8" target="FMVrPWAAgrIxdDDhSXM1-16">
          <mxGeometry relative="1" as="geometry" />
        </mxCell>
        <mxCell id="FMVrPWAAgrIxdDDhSXM1-35" style="rounded=0;orthogonalLoop=1;jettySize=auto;html=1;exitX=1;exitY=0.5;exitDx=0;exitDy=0;entryX=0;entryY=0.5;entryDx=0;entryDy=0;" edge="1" parent="1" source="FMVrPWAAgrIxdDDhSXM1-8" target="FMVrPWAAgrIxdDDhSXM1-11">
          <mxGeometry relative="1" as="geometry" />
        </mxCell>
        <mxCell id="FMVrPWAAgrIxdDDhSXM1-36" style="rounded=0;orthogonalLoop=1;jettySize=auto;html=1;exitX=1;exitY=0.5;exitDx=0;exitDy=0;entryX=0;entryY=0.5;entryDx=0;entryDy=0;" edge="1" parent="1" source="FMVrPWAAgrIxdDDhSXM1-8" target="FMVrPWAAgrIxdDDhSXM1-13">
          <mxGeometry relative="1" as="geometry" />
        </mxCell>
        <mxCell id="FMVrPWAAgrIxdDDhSXM1-37" style="rounded=0;orthogonalLoop=1;jettySize=auto;html=1;exitX=1;exitY=0.5;exitDx=0;exitDy=0;" edge="1" parent="1" source="FMVrPWAAgrIxdDDhSXM1-8">
          <mxGeometry relative="1" as="geometry">
            <mxPoint x="494" y="447" as="targetPoint" />
          </mxGeometry>
        </mxCell>
        <mxCell id="FMVrPWAAgrIxdDDhSXM1-8" value="Xc" style="ellipse;whiteSpace=wrap;html=1;aspect=fixed;" vertex="1" parent="1">
          <mxGeometry x="257" y="576" width="80" height="80" as="geometry" />
        </mxCell>
        <mxCell id="FMVrPWAAgrIxdDDhSXM1-39" style="rounded=0;orthogonalLoop=1;jettySize=auto;html=1;exitX=1;exitY=0.5;exitDx=0;exitDy=0;entryX=0;entryY=0.5;entryDx=0;entryDy=0;" edge="1" parent="1" source="FMVrPWAAgrIxdDDhSXM1-11" target="FMVrPWAAgrIxdDDhSXM1-19">
          <mxGeometry relative="1" as="geometry" />
        </mxCell>
        <mxCell id="FMVrPWAAgrIxdDDhSXM1-11" value="" style="ellipse;whiteSpace=wrap;html=1;aspect=fixed;" vertex="1" parent="1">
          <mxGeometry x="496" y="96" width="80" height="80" as="geometry" />
        </mxCell>
        <mxCell id="FMVrPWAAgrIxdDDhSXM1-40" style="edgeStyle=orthogonalEdgeStyle;rounded=0;orthogonalLoop=1;jettySize=auto;html=1;exitX=1;exitY=0.5;exitDx=0;exitDy=0;" edge="1" parent="1" source="FMVrPWAAgrIxdDDhSXM1-13">
          <mxGeometry relative="1" as="geometry">
            <mxPoint x="724" y="296" as="targetPoint" />
          </mxGeometry>
        </mxCell>
        <mxCell id="FMVrPWAAgrIxdDDhSXM1-41" style="rounded=0;orthogonalLoop=1;jettySize=auto;html=1;exitX=1;exitY=0.5;exitDx=0;exitDy=0;entryX=0;entryY=0.5;entryDx=0;entryDy=0;" edge="1" parent="1" source="FMVrPWAAgrIxdDDhSXM1-13" target="FMVrPWAAgrIxdDDhSXM1-19">
          <mxGeometry relative="1" as="geometry" />
        </mxCell>
        <mxCell id="FMVrPWAAgrIxdDDhSXM1-13" value="" style="ellipse;whiteSpace=wrap;html=1;aspect=fixed;" vertex="1" parent="1">
          <mxGeometry x="496" y="256" width="80" height="80" as="geometry" />
        </mxCell>
        <mxCell id="FMVrPWAAgrIxdDDhSXM1-42" style="rounded=0;orthogonalLoop=1;jettySize=auto;html=1;exitX=1;exitY=0.5;exitDx=0;exitDy=0;entryX=0;entryY=0.5;entryDx=0;entryDy=0;" edge="1" parent="1" source="FMVrPWAAgrIxdDDhSXM1-15" target="FMVrPWAAgrIxdDDhSXM1-18">
          <mxGeometry relative="1" as="geometry" />
        </mxCell>
        <mxCell id="FMVrPWAAgrIxdDDhSXM1-43" style="edgeStyle=orthogonalEdgeStyle;rounded=0;orthogonalLoop=1;jettySize=auto;html=1;exitX=1;exitY=0.5;exitDx=0;exitDy=0;entryX=0;entryY=0.5;entryDx=0;entryDy=0;" edge="1" parent="1" source="FMVrPWAAgrIxdDDhSXM1-15" target="FMVrPWAAgrIxdDDhSXM1-19">
          <mxGeometry relative="1" as="geometry" />
        </mxCell>
        <mxCell id="FMVrPWAAgrIxdDDhSXM1-15" value="" style="ellipse;whiteSpace=wrap;html=1;aspect=fixed;" vertex="1" parent="1">
          <mxGeometry x="496" y="416" width="80" height="80" as="geometry" />
        </mxCell>
        <mxCell id="FMVrPWAAgrIxdDDhSXM1-44" style="rounded=0;orthogonalLoop=1;jettySize=auto;html=1;exitX=1;exitY=0.5;exitDx=0;exitDy=0;" edge="1" parent="1" source="FMVrPWAAgrIxdDDhSXM1-16">
          <mxGeometry relative="1" as="geometry">
            <mxPoint x="724" y="298" as="targetPoint" />
          </mxGeometry>
        </mxCell>
        <mxCell id="FMVrPWAAgrIxdDDhSXM1-45" style="rounded=0;orthogonalLoop=1;jettySize=auto;html=1;exitX=1;exitY=0.5;exitDx=0;exitDy=0;" edge="1" parent="1" source="FMVrPWAAgrIxdDDhSXM1-16">
          <mxGeometry relative="1" as="geometry">
            <mxPoint x="723" y="453" as="targetPoint" />
          </mxGeometry>
        </mxCell>
        <mxCell id="FMVrPWAAgrIxdDDhSXM1-16" value="" style="ellipse;whiteSpace=wrap;html=1;aspect=fixed;" vertex="1" parent="1">
          <mxGeometry x="496" y="576" width="80" height="80" as="geometry" />
        </mxCell>
        <mxCell id="FMVrPWAAgrIxdDDhSXM1-18" value="" style="ellipse;whiteSpace=wrap;html=1;aspect=fixed;" vertex="1" parent="1">
          <mxGeometry x="725" y="256" width="80" height="80" as="geometry" />
        </mxCell>
        <mxCell id="FMVrPWAAgrIxdDDhSXM1-19" value="" style="ellipse;whiteSpace=wrap;html=1;aspect=fixed;" vertex="1" parent="1">
          <mxGeometry x="725" y="416" width="80" height="80" as="geometry" />
        </mxCell>
        <mxCell id="FMVrPWAAgrIxdDDhSXM1-33" style="rounded=0;orthogonalLoop=1;jettySize=auto;html=1;exitX=1;exitY=0.5;exitDx=0;exitDy=0;entryX=0;entryY=0.413;entryDx=0;entryDy=0;entryPerimeter=0;" edge="1" parent="1" source="FMVrPWAAgrIxdDDhSXM1-4" target="FMVrPWAAgrIxdDDhSXM1-15">
          <mxGeometry relative="1" as="geometry" />
        </mxCell>
        <mxCell id="FMVrPWAAgrIxdDDhSXM1-38" style="rounded=0;orthogonalLoop=1;jettySize=auto;html=1;exitX=1;exitY=0.5;exitDx=0;exitDy=0;entryX=0;entryY=0.488;entryDx=0;entryDy=0;entryPerimeter=0;" edge="1" parent="1" source="FMVrPWAAgrIxdDDhSXM1-11" target="FMVrPWAAgrIxdDDhSXM1-18">
          <mxGeometry relative="1" as="geometry" />
        </mxCell>
        <mxCell id="FMVrPWAAgrIxdDDhSXM1-47" value="" style="shape=waypoint;sketch=0;fillStyle=solid;size=6;pointerEvents=1;points=[];fillColor=none;resizable=0;rotatable=0;perimeter=centerPerimeter;snapToPoint=1;" vertex="1" parent="1">
          <mxGeometry x="287" y="394" width="20" height="20" as="geometry" />
        </mxCell>
        <mxCell id="FMVrPWAAgrIxdDDhSXM1-48" value="" style="shape=waypoint;sketch=0;fillStyle=solid;size=6;pointerEvents=1;points=[];fillColor=none;resizable=0;rotatable=0;perimeter=centerPerimeter;snapToPoint=1;" vertex="1" parent="1">
          <mxGeometry x="287" y="442" width="20" height="20" as="geometry" />
        </mxCell>
        <mxCell id="FMVrPWAAgrIxdDDhSXM1-49" value="" style="shape=waypoint;sketch=0;fillStyle=solid;size=6;pointerEvents=1;points=[];fillColor=none;resizable=0;rotatable=0;perimeter=centerPerimeter;snapToPoint=1;" vertex="1" parent="1">
          <mxGeometry x="287" y="490" width="20" height="20" as="geometry" />
        </mxCell>
        <mxCell id="FMVrPWAAgrIxdDDhSXM1-50" value="" style="shape=waypoint;sketch=0;fillStyle=solid;size=6;pointerEvents=1;points=[];fillColor=none;resizable=0;rotatable=0;perimeter=centerPerimeter;snapToPoint=1;" vertex="1" parent="1">
          <mxGeometry x="526" y="504" width="20" height="20" as="geometry" />
        </mxCell>
        <mxCell id="FMVrPWAAgrIxdDDhSXM1-51" value="" style="shape=waypoint;sketch=0;fillStyle=solid;size=6;pointerEvents=1;points=[];fillColor=none;resizable=0;rotatable=0;perimeter=centerPerimeter;snapToPoint=1;" vertex="1" parent="1">
          <mxGeometry x="526" y="526" width="20" height="20" as="geometry" />
        </mxCell>
        <mxCell id="FMVrPWAAgrIxdDDhSXM1-52" value="" style="shape=waypoint;sketch=0;fillStyle=solid;size=6;pointerEvents=1;points=[];fillColor=none;resizable=0;rotatable=0;perimeter=centerPerimeter;snapToPoint=1;" vertex="1" parent="1">
          <mxGeometry x="526" y="550" width="20" height="20" as="geometry" />
        </mxCell>
        <mxCell id="FMVrPWAAgrIxdDDhSXM1-53" value="" style="shape=waypoint;sketch=0;fillStyle=solid;size=6;pointerEvents=1;points=[];fillColor=none;resizable=0;rotatable=0;perimeter=centerPerimeter;snapToPoint=1;" vertex="1" parent="1">
          <mxGeometry x="755" y="345" width="20" height="20" as="geometry" />
        </mxCell>
        <mxCell id="FMVrPWAAgrIxdDDhSXM1-54" value="" style="shape=waypoint;sketch=0;fillStyle=solid;size=6;pointerEvents=1;points=[];fillColor=none;resizable=0;rotatable=0;perimeter=centerPerimeter;snapToPoint=1;" vertex="1" parent="1">
          <mxGeometry x="755" y="365" width="20" height="20" as="geometry" />
        </mxCell>
        <mxCell id="FMVrPWAAgrIxdDDhSXM1-55" value="" style="shape=waypoint;sketch=0;fillStyle=solid;size=6;pointerEvents=1;points=[];fillColor=none;resizable=0;rotatable=0;perimeter=centerPerimeter;snapToPoint=1;" vertex="1" parent="1">
          <mxGeometry x="755" y="385" width="20" height="20" as="geometry" />
        </mxCell>
        <mxCell id="FMVrPWAAgrIxdDDhSXM1-64" value="&lt;font style=&quot;font-size: 15px;&quot;&gt;&lt;b&gt;Input Layer&lt;br&gt;&lt;/b&gt;&lt;/font&gt;" style="text;html=1;whiteSpace=wrap;overflow=hidden;rounded=0;" vertex="1" parent="1">
          <mxGeometry x="251.5" y="681" width="91" height="32" as="geometry" />
        </mxCell>
        <mxCell id="FMVrPWAAgrIxdDDhSXM1-65" value="&lt;font style=&quot;font-size: 15px;&quot;&gt;&lt;b&gt;Hiddden Layer&lt;br&gt;&lt;/b&gt;&lt;/font&gt;" style="text;html=1;whiteSpace=wrap;overflow=hidden;rounded=0;" vertex="1" parent="1">
          <mxGeometry x="479.25" y="685" width="113.5" height="32" as="geometry" />
        </mxCell>
        <mxCell id="FMVrPWAAgrIxdDDhSXM1-66" value="&lt;font style=&quot;font-size: 15px;&quot;&gt;&lt;b&gt;Output Layer&lt;br&gt;&lt;/b&gt;&lt;/font&gt;" style="text;html=1;whiteSpace=wrap;overflow=hidden;rounded=0;" vertex="1" parent="1">
          <mxGeometry x="713.25" y="685" width="103.5" height="32" as="geometry" />
        </mxCell>
      </root>
    </mxGraphModel>
  </diagram>
</mxfile>
